<?xml version="1.0" encoding="iso-8859-1"?>
<!-- Generator: Adobe Illustrator 18.1.1, SVG Export Plug-In . SVG Version: 6.00 Build 0)  -->
<svg version="1.1" id="Capa_1" xmlns="http://www.w3.org/2000/svg" xmlns:xlink="http://www.w3.org/1999/xlink" x="0px" y="0px"
	 viewBox="0 0 16 16" style="enable-background:new 0 0 16 16;" xml:space="preserve">
<g>
	<path style="fill:#030104;" d="M6,0h2v2H6V0z"/>
	<path style="fill:#030104;" d="M0,2h2v2H0V2z"/>
	<path style="fill:#030104;" d="M2,0h2v2H2V0z"/>
	<path style="fill:#030104;" d="M0,10h2v2H0V10z"/>
	<path style="fill:#030104;" d="M0,6h2v2H0V6z"/>
	<path style="fill:#030104;" d="M6,8h2v2H6V8z"/>
	<path style="fill:#030104;" d="M14,0h2v2h-2V0z"/>
	<path style="fill:#030104;" d="M10,0h2v2h-2V0z"/>
	<path style="fill:#030104;" d="M12,14h2v2h-2V14z"/>
	<path style="fill:#030104;" d="M14,12h2v2h-2V12z"/>
	<path style="fill:#030104;" d="M4,2h2v2H4V2z"/>
	<path style="fill:#030104;" d="M14,4h2v2h-2V4z"/>
	<path style="fill:#030104;" d="M14,8h2v2h-2V8z"/>
	<path style="fill:#030104;" d="M4,14h2v2H4V14z"/>
	<path style="fill:#030104;" d="M8,14h2v2H8V14z"/>
	<path style="fill:#030104;" d="M12,2h2v2h-2V2z"/>
	<path style="fill:#030104;" d="M0,14h2v2H0V14z"/>
	<path style="fill:#030104;" d="M2,12h2v2H2V12z"/>
	<path style="fill:#030104;" d="M10,8h2v2h-2V8z"/>
	<path style="fill:#030104;" d="M10,12h2v2h-2V12z"/>
	<path style="fill:#030104;" d="M10,4h2v2h-2V4z"/>
	<path style="fill:#030104;" d="M8,10h2v2H8V10z"/>
	<path style="fill:#030104;" d="M8,2h2v2H8V2z"/>
	<path style="fill:#030104;" d="M6,12h2v2H6V12z"/>
	<path style="fill:#030104;" d="M4,6h2v2H4V6z"/>
	<path style="fill:#030104;" d="M12,10h2v2h-2V10z"/>
	<path style="fill:#030104;" d="M12,6h2v2h-2V6z"/>
	<path style="fill:#030104;" d="M2,8h2v2H2V8z"/>
	<path style="fill:#030104;" d="M6,4h2v2H6V4z"/>
	<path style="fill:#030104;" d="M4,10h2v2H4V10z"/>
	<path style="fill:#030104;" d="M8,6h2v2H8V6z"/>
	<path style="fill:#030104;" d="M2,4h2v2H2V4z"/>
</g>
<g>
</g>
<g>
</g>
<g>
</g>
<g>
</g>
<g>
</g>
<g>
</g>
<g>
</g>
<g>
</g>
<g>
</g>
<g>
</g>
<g>
</g>
<g>
</g>
<g>
</g>
<g>
</g>
<g>
</g>
</svg>
